<?xml version="1.0" encoding="UTF-8" standalone="no"?>
<!-- Created with Inkscape (http://www.inkscape.org/) -->

<svg
   width="59.281109mm"
   height="73.218979mm"
   viewBox="0 0 59.281109 73.218979"
   version="1.1"
   id="svg1"
   xml:space="preserve"
   xmlns="http://www.w3.org/2000/svg"
   xmlns:svg="http://www.w3.org/2000/svg"><defs
     id="defs1" /><g
     id="layer1"
     transform="translate(-83.605627,-129.69968)"><path
       style="baseline-shift:baseline;display:inline;overflow:visible;opacity:1;vector-effect:none;fill:#ee6123;fill-opacity:1;stroke:none;stroke-opacity:0.649849;enable-background:accumulate;stop-color:#000000;stop-opacity:1"
       d="m 111.78157,129.7038 c -5.11537,0.11655 -9.55627,2.67692 -13.091803,6.12695 -3.53553,3.45003 -6.35159,7.86191 -8.61523,12.51758 -4.52729,9.31133 -6.98126,19.18822 -6.37891,25.88867 1.65605,18.42184 15.75767,28.67156 29.701173,28.68164 13.94351,0.0101 27.98679,-10.31081 29.42579,-29.0918 0.57236,-7.47011 -2.73239,-17.52887 -8.03516,-26.66406 -2.65138,-4.5676 -5.84605,-8.81063 -9.63281,-12.04297 -3.78677,-3.23234 -8.32949,-5.53093 -13.37305,-5.41601 z m 0.18164,7.98828 c 2.48385,-0.0566 5.18556,1.10014 8.00391,3.50586 2.81835,2.40571 5.59185,5.98276 7.91015,9.97656 4.63662,7.98759 7.2872,18.01233 6.97852,22.04101 -1.16787,15.24238 -11.2137,21.7203 -21.45313,21.71289 -10.23942,-0.007 -20.416033,-6.59093 -21.748043,-21.4082 -0.31451,-3.49856 1.64688,-13.53605 5.60547,-21.67773 1.97929,-4.07084 4.424163,-7.7699 7.009763,-10.29297 2.5856,-2.52307 5.12441,-3.79889 7.69336,-3.85742 z"
       id="path1-2" /></g></svg>
